<svg width="198" height="121" viewBox="0 0 198 121" fill="none" xmlns="http://www.w3.org/2000/svg">
<path d="M99.7364 61.0576C83.7015 55.2666 63.5859 52.9757 44.6691 54.7798L52.3892 57.6C37.8127 59.567 24.6614 64.5587 16.1959 71.365C19.8136 70.8356 23.4198 70.2958 27.0365 69.7664C11.8558 75.0821 1.57679 84.3846 0 94.2176C2.47267 93.4931 4.95576 92.78 7.42843 92.0564C8.93987 99.555 15.7641 106.696 26.1511 111.656C26.1511 109.982 27.2316 108.318 29.1531 107.032C35.394 110.392 38.3421 115.491 36.7435 120.203C45.5868 118.463 54.0844 116.194 62.0204 113.439C63.619 115.395 63.7269 117.706 62.3443 119.706C79.4692 119.144 96.3888 116.789 111.915 112.791C112.24 114.724 111.549 116.702 109.961 118.431C123.296 116.01 136.08 112.693 147.946 108.577C148.216 111.062 148.498 113.547 148.768 116.043C158.615 112.251 166.702 107.107 172.068 101.197C176.517 102.364 179.616 104.946 179.788 107.647C182.261 102.991 182.131 97.9233 179.443 93.299C184.205 93.137 189.041 94.4979 191.59 96.7025C191.094 90.9115 185.965 85.2928 177.813 81.5975C180.685 81.1439 183.568 80.7007 186.44 80.2471C181.959 77.5566 176.204 75.5139 169.909 74.3585C177.208 70.1443 187.238 67.3894 197.766 66.7085C178.007 60.0206 152.6 58.6266 130.811 63.0132C134.159 61.3815 137.506 59.7498 140.852 58.1294C131.643 57.2544 121.849 58.3567 114.01 61.1656C114.226 59.5774 110.739 58.4647 107.877 58.7564C105.016 59.048 102.792 60.2365 100.751 61.3711" fill="#8F4829"/>
<path d="M100.49 12.8037C84.9741 2.59293 65.5279 -1.45842 47.2362 1.71789L54.6978 6.68784C40.5957 10.1558 27.8876 18.984 19.7034 30.977C23.2017 30.0367 26.6887 29.0858 30.187 28.1464C15.5138 37.5352 5.5692 53.9584 4.04639 71.3107C6.44424 70.036 8.84113 68.7717 11.2267 67.497C12.6955 80.7439 19.2925 93.3526 29.3233 102.104C29.3233 99.155 30.3707 96.2154 32.2278 93.9359C38.2641 99.8567 41.1147 108.869 39.5701 117.188C48.1217 114.13 56.339 110.111 64.0051 105.249C65.5488 108.706 65.6567 112.78 64.3186 116.313C80.881 115.329 97.2399 111.158 112.259 104.103C112.572 107.507 111.903 111.008 110.369 114.065C123.261 109.798 135.625 103.941 147.102 96.67L147.902 109.84C157.425 103.152 165.242 94.0553 170.435 83.639C174.744 85.7026 177.723 90.2624 177.897 95.0383C180.283 86.8162 180.164 77.8697 177.561 69.7121C182.173 69.4308 186.848 71.8192 189.309 75.7304C188.823 65.5092 183.868 55.5797 175.986 49.0642C178.771 48.2753 181.547 47.476 184.332 46.6872C179.991 41.9435 174.441 38.3354 168.341 36.2927C175.392 28.8595 185.099 23.9975 195.27 22.7976C176.169 10.9987 151.594 8.52509 130.528 16.2717C133.767 13.3975 136.996 10.5233 140.235 7.63865C131.327 6.09406 121.858 8.04968 114.278 12.9979C114.483 10.189 111.115 8.22202 108.35 8.74098C105.586 9.259 103.437 11.3557 101.462 13.3653" fill="#FFDD71"/>
<path d="M101.961 12.2629C85.9914 1.81443 66.2972 -2.11761 47.5196 1.08048C47.3369 1.11268 45.1019 1.81443 45.7705 2.25764L53.2321 7.22759L54.5598 6.13661C39.8649 9.81011 26.7562 18.7348 18.162 31.2365C17.7519 31.8302 19.8032 31.5282 19.8572 31.5168C23.3555 30.5773 26.8434 29.6265 30.3416 28.6861L28.9912 28.0592C17.4271 35.5151 8.70315 47.119 4.70861 60.2901C3.57408 64.0176 2.85055 67.853 2.49447 71.732C2.43007 72.4025 4.77304 71.6781 4.97855 71.5701C7.37546 70.2954 9.77234 69.0311 12.1588 67.7564L9.67481 67.9184C11.208 81.2619 17.7841 93.7844 27.869 102.645C28.4305 103.142 30.8919 102.525 30.9032 101.672C30.9572 98.8197 31.8957 96.0752 33.6666 93.8279L30.7735 94.4653C36.7227 100.397 39.4975 109.149 38.04 117.436C37.8998 118.247 39.8327 117.696 40.1452 117.588C48.9345 114.422 57.3346 110.305 65.2384 105.324L62.4637 105.659C63.9543 109.16 64.083 112.984 62.7875 116.561C62.6256 117.004 63.4571 116.993 63.673 116.983C80.8084 115.924 97.6417 111.623 113.19 104.352L110.707 104.514C110.977 107.928 110.329 111.234 108.828 114.314C108.472 115.049 110.761 114.519 110.933 114.465C124.064 110.1 136.621 104.135 148.325 96.7447L145.551 97.08C145.82 101.467 146.079 105.865 146.349 110.251C146.392 111.029 148.833 110.121 149.125 109.916C158.788 103.077 166.68 93.9577 171.993 83.369L168.981 84.1797C173.289 86.3294 176.096 90.6403 176.355 95.4483C176.399 96.1728 179.282 95.4057 179.465 94.7683C181.83 86.4269 181.732 77.5666 179.152 69.2906L176.927 70.3929C181.247 70.1979 185.425 72.5749 187.779 76.1518C188.233 76.8431 190.954 76.184 190.91 75.3089C190.36 64.9684 185.425 55.1582 177.489 48.513L176.161 49.6039C178.946 48.8151 181.722 48.0158 184.507 47.2269C184.745 47.1625 186.322 46.6653 185.836 46.1359C181.387 41.3383 175.837 37.7624 169.661 35.6553L169.812 36.1951C176.529 29.1833 185.404 24.613 195.046 23.4245C195.229 23.4027 197.464 22.6574 196.795 22.2464C181.398 12.8037 162.794 9.33472 144.978 12.0252C139.882 12.7923 134.861 14.0888 130.023 15.8606L132 16.1855C135.238 13.3113 138.467 10.4371 141.707 7.55243C141.933 7.35735 141.869 7.05523 141.555 7.01167C131.73 5.37995 121.493 7.53065 113.115 12.9116L115.89 12.5764C115.966 9.33472 112.348 7.79012 109.562 7.99563C105.675 8.27595 102.695 10.7931 100.082 13.4514C99.5746 13.959 100.524 14.0461 100.838 14.0348C101.507 14.013 102.436 13.7649 102.922 13.2677C104.38 11.7875 106.615 9.05439 108.947 9.37827C111.009 9.65953 112.812 11.2581 112.758 13.4192C112.736 14.1863 115.263 13.2573 115.533 13.084C122.487 8.61118 130.855 6.92548 138.996 8.27594L138.845 7.73616C135.606 10.6104 132.377 13.4836 129.138 16.3692C128.285 17.1363 130.909 16.7688 131.114 16.6931C147.018 10.902 164.835 11.2581 180.695 17.0065C185.285 18.6704 189.68 20.7984 193.836 23.3487L195.585 22.1706C184.777 23.5002 174.498 28.5138 166.95 36.3902C166.724 36.6279 166.8 36.8334 167.102 36.93C173.149 38.9935 178.558 42.5486 182.898 47.2383L184.227 46.1464C181.441 46.9352 178.666 47.7345 175.88 48.5234C175.718 48.567 174.002 49.1503 174.552 49.6153C182.412 56.1952 187.239 65.9088 187.779 76.1518L190.91 75.3089C188.113 71.0303 183.32 68.8039 178.266 69.0311C177.899 69.0529 175.815 69.4308 176.042 70.1335C178.602 78.312 178.73 87.0529 176.399 95.2977L179.508 94.6168C179.249 89.733 176.323 85.2706 171.95 83.0878C171.194 82.7099 169.337 83.0878 168.937 83.8984C163.776 94.1849 156.142 103.109 146.749 109.754L149.523 109.419L148.725 96.2485C148.681 95.4596 146.241 96.3991 145.949 96.5828C134.656 103.714 122.541 109.43 109.865 113.655L111.97 113.806C113.514 110.64 114.151 107.193 113.881 103.693C113.827 102.98 111.668 103.736 111.398 103.855C96.832 110.662 81.0783 114.648 65.0443 115.643L65.9297 116.064C67.2575 112.401 67.1713 108.425 65.6381 104.838C65.3038 104.049 63.3169 104.892 62.8633 105.173C55.3809 109.894 47.4117 113.784 39.076 116.787L41.1822 116.939C42.6937 108.393 39.9075 99.5328 33.7642 93.3961C33.2244 92.8553 31.2811 93.5145 30.8701 94.0334C28.9268 96.5071 27.8794 99.3813 27.8254 102.537L30.8597 101.564C20.8392 92.7578 14.372 80.3433 12.8492 67.0859C12.763 66.3842 10.6464 67.1077 10.3661 67.2479C7.96921 68.5235 5.57232 69.7878 3.18583 71.0625L5.66893 70.9006C7.23436 53.7207 16.9527 37.5891 31.4535 28.2429C32.6524 27.4759 30.5358 27.4976 30.104 27.617C26.6057 28.5564 23.1178 29.5072 19.6195 30.4476L21.3147 30.7279C29.2403 19.1885 41.3006 10.6312 54.9055 7.23895C55.0134 7.20675 56.828 6.54764 56.2332 6.148C53.7501 4.4945 51.2556 2.83056 48.7725 1.17706L47.0234 2.35518C64.9903 -0.702756 83.853 3.39217 99.0783 13.3652C99.6181 13.7213 100.558 13.4296 101.108 13.2251C101.291 13.1597 102.523 12.5982 102.025 12.2629H101.961Z" fill="#C57F58"/>
<path d="M93.7234 28.1462C82.4946 19.8806 67.6586 16.7034 54.0328 19.6637C57.7035 19.6751 61.3637 20.9062 64.3004 23.1213C52.0781 23.2833 40.0169 28.8915 32.0269 38.1515C35.2231 36.7461 38.8407 36.2707 42.285 36.8219C35.5583 41.468 30.505 48.5025 28.27 56.3675C32.006 50.8359 38.1816 47.0327 44.8003 46.168C41.0539 51.8303 38.8076 58.4746 38.3331 65.2496C44.2605 61.0031 51.7107 58.9282 58.9772 59.5011C57.7139 63.1102 57.1958 66.9779 57.4771 70.7925C66.881 63.9095 80.7019 63.8233 90.1929 70.587C102.34 64.4607 119.033 70.4137 124.561 82.8499C125.501 78.4529 125.253 73.8173 123.849 69.5386C129.355 69.0414 135.046 71.4725 138.49 75.7947C139.127 71.8191 137.518 67.5612 134.43 64.9787C143.425 62.2134 153.564 63.4341 161.64 68.2526C158.746 57.9887 147.689 50.7384 137.129 52.176C141.892 47.1511 148.435 43.8564 155.313 43.0239C148.045 40.8742 140.271 40.4736 132.821 41.879C139.214 32.3813 149.774 25.8232 161.111 24.3098C147.614 18.8323 130.888 22.6459 121.095 33.4297C120.609 30.8036 121.031 28.0269 122.272 25.6717C116.841 25.9529 111.54 28.1888 107.556 31.8955C107.976 30.4361 108.409 28.9891 108.829 27.5297C103.938 27.0439 98.8742 28.7078 95.2244 32.0035C94.4801 29.6151 92.4932 27.6377 90.0963 26.9246" fill="#E8BD54"/>
<path d="M28.1273 44.3423C24.521 46.2543 22.3183 49.6693 20.839 53.375C18.9933 57.9889 17.8161 62.9266 16.8871 67.799C16.6929 68.8038 19.8247 68.2744 19.9971 67.335C20.8608 62.7855 21.984 58.2266 23.5816 53.8721C24.8449 50.4468 26.6481 46.8273 30.0062 45.0554C30.4712 44.8063 30.8916 44.3527 30.3301 44.007C29.7685 43.6614 28.6245 44.0828 28.1273 44.3423Z" fill="#FFF297"/>
<path d="M34.6016 58.0316C26.5784 63.6181 24.5812 73.6016 24.8833 82.8066C24.9051 83.5197 28.0472 82.9799 28.015 81.9637C27.7233 73.3316 29.4621 63.5527 37.0421 58.2806C37.5705 57.9132 37.3868 57.524 36.8148 57.4378C36.1026 57.3185 35.184 57.6319 34.6016 58.0316Z" fill="#FFF297"/>
<path d="M48.8055 68.5994C41.8951 74.2929 38.3003 83.3474 39.6176 92.2399C39.8335 93.6661 42.9643 92.8877 42.7484 91.397C41.5826 83.4989 44.6917 75.1036 50.8682 70.0038C52.5094 68.6534 49.9941 67.6155 48.7951 68.5994H48.8055Z" fill="#FFF297"/>
<path d="M50.2932 82.7534C49.1378 89.9489 46.5146 96.8318 42.6053 102.98C42.325 103.412 43.7285 103.218 43.8364 103.196C44.3658 103.098 45.3592 102.904 45.6831 102.397C49.635 96.1727 52.2583 89.2036 53.425 81.921C53.4572 81.6946 50.4334 81.867 50.2932 82.7638V82.7534Z" fill="#FFF297"/>
<path d="M50.5337 107.161C59.3334 100.321 66.3197 91.3645 70.6608 81.078C71.2972 79.5656 68.1663 79.8147 67.7127 80.8943C63.5553 90.7376 56.9688 99.4682 48.5365 106.026C46.8631 107.323 49.4541 107.993 50.5337 107.161Z" fill="#FFF297"/>
<path d="M77.4538 79.4246C78.0049 86.5234 76.6014 93.6659 73.4696 100.051C73.1562 100.689 74.5274 100.699 74.8087 100.667C75.4887 100.581 76.2775 100.278 76.59 99.6406C79.7862 93.1033 81.1358 85.8321 80.5742 78.5931C80.4984 77.6423 77.3571 78.29 77.4433 79.4359L77.4538 79.4246Z" fill="#FFF297"/>
<path d="M66.3615 8.7618C75.701 11.7875 85.927 15.2773 91.5845 23.8782C92.1243 24.6888 95.1585 23.6944 94.4994 22.6783C88.7661 13.9704 78.3148 10.3613 68.8664 7.29297C68.1542 7.06569 67.2906 7.21721 66.6532 7.60643C66.318 7.81099 65.6275 8.51369 66.3615 8.75139V8.7618Z" fill="#FFF297"/>
<path d="M36.021 21.9225C40.5023 21.307 45.0366 21.3174 49.5075 21.9869C50.2632 22.0958 51.1487 21.9329 51.7207 21.3931C52.1743 20.9717 52.0986 20.3562 51.4186 20.2586C46.4515 19.5237 41.4199 19.4697 36.4424 20.1506C35.8695 20.2264 34.7794 20.5399 34.6715 21.2312C34.5635 21.9225 35.5892 21.9869 36.0324 21.933L36.021 21.9225Z" fill="#FFF297"/>
<path d="M87.4476 77.7069C86.5953 87.1184 83.9928 96.2373 79.7274 104.676C78.9291 106.254 82.0921 106.264 82.7191 105.032C87.0697 96.4324 89.7479 87.0644 90.6229 77.4692C90.7631 75.8593 87.5773 76.2921 87.4476 77.7069Z" fill="#FFF297"/>
<path d="M96.9418 77.3288C102.632 77.6641 107.113 81.8669 109.478 86.8151C111.842 91.7642 112.522 96.9823 113.224 102.201C113.397 103.476 116.539 102.731 116.356 101.359C115.599 95.6537 114.725 89.8191 111.961 84.6976C109.154 79.4899 104.111 75.6109 98.0858 75.2548C97.3955 75.2113 96.3585 75.4707 96.0346 76.1725C95.7108 76.8752 96.3045 77.2852 96.9418 77.3288Z" fill="#FFF297"/>
<path d="M99.6966 86.5674C100.311 90.3166 99.4807 94.1634 97.4938 97.3833C97.0724 98.0632 97.8717 98.6902 98.4655 98.7763C99.297 98.8957 100.063 98.496 100.495 97.7933C102.709 94.206 103.497 89.8734 102.817 85.7245C102.687 84.947 101.542 84.8599 100.949 85.0114C100.247 85.1951 99.5555 85.7681 99.6852 86.5674H99.6966Z" fill="#FFF297"/>
<path d="M126.958 100.711C135.509 96.2267 142.355 88.8257 146.016 79.8688C146.307 79.1557 143.273 79.4796 142.917 80.365C139.494 88.7717 133.166 95.8914 125.112 100.116C124.68 100.343 124.205 100.743 124.766 101.078C125.328 101.413 126.483 100.97 126.969 100.721L126.958 100.711Z" fill="#FFF297"/>
<path d="M129.752 80.3753C129.848 83.5952 128.78 86.8047 126.803 89.3332C126.35 89.9166 127.193 90.2187 127.645 90.2187C128.369 90.2187 129.254 89.9705 129.718 89.3758C131.9 86.567 133.002 83.0876 132.894 79.5439C132.894 79.3062 132.451 79.1651 132.289 79.1329C131.932 79.0571 131.468 79.1111 131.123 79.2086C130.572 79.3705 129.74 79.6954 129.762 80.3867L129.752 80.3753Z" fill="#FFF297"/>
<path d="M155.356 73.7314C155.529 79.5007 155.064 85.2813 153.888 90.9436C153.607 92.2827 153.218 93.5905 152.948 94.9296C152.787 95.7402 152.883 96.3776 153.834 96.4429C154.568 96.4969 156.285 96.1617 156.577 95.3188C156.889 94.4333 155.669 94.5839 155.162 94.6815C154.752 94.7676 153.413 95.0053 153.326 95.5461C153.24 96.0859 154.32 95.9135 154.578 95.8595L154.698 95.8378L153.51 95.7838C153.445 95.9239 153.488 95.9135 153.639 95.7516L156.123 95.189C155.755 95.1351 156.997 90.2844 157.105 89.7655C157.451 88.0258 157.732 86.2757 157.948 84.5142C158.434 80.657 158.606 76.778 158.488 72.899C158.466 72.3592 155.334 72.8451 155.356 73.7419V73.7314Z" fill="#FFF297"/>
<path d="M152.626 51.8295C160.659 53.3315 167.624 58.8204 171.251 66.103C171.888 67.3673 174.858 66.2005 174.113 64.709C170.139 56.7568 162.387 51.1382 153.695 49.5178C152.129 49.2261 150.542 51.4412 152.626 51.8295Z" fill="#FFF297"/>
<path d="M154.375 37.341C158.555 37.341 162.625 39.0267 165.767 41.738C166.761 42.6027 169.524 41.1329 168.196 39.9775C164.45 36.7359 159.601 35.1259 154.689 35.1363C154.03 35.1363 153.048 35.6449 152.95 36.3684C152.854 37.1791 153.803 37.3297 154.375 37.3297V37.341Z" fill="#FFF297"/>
<path d="M155.338 18.8324C160.435 18.5511 165.466 19.6317 170.034 21.9225C170.67 22.236 171.675 21.9225 172.236 21.5987C172.657 21.361 173.186 20.8202 172.539 20.4963C167.615 18.0218 162.076 16.909 156.591 17.212C155.932 17.2442 154.906 17.4166 154.518 18.0331C154.128 18.6487 154.83 18.8646 155.338 18.8324Z" fill="#FFF297"/>
<path d="M110.526 24.2353C115.568 21.9227 120.34 19.0059 124.702 15.5805C125.22 15.1695 125.502 14.4024 124.864 13.9488C124.228 13.4952 123.201 13.6789 122.619 14.1325C118.451 17.4064 113.938 20.1612 109.132 22.3763C108.56 22.6358 107.945 23.3707 108.398 23.9976C108.852 24.6236 109.91 24.527 110.526 24.2353Z" fill="#FFF297"/>
<path d="M54.0381 38C52.073 39.502 48.2944 38.7567 47.7214 41.1546C47.247 43.1319 49.7405 44.3744 51.6952 44.9152C57.2778 46.4597 62.6759 48.6426 67.7727 51.3871C69.8353 52.4999 72.1243 54.2282 71.8866 56.5626C71.4765 60.6035 64.1986 61.1329 64.0471 65.1956C63.9392 68.0585 67.4914 69.4203 70.3097 69.9279C81.0745 71.8617 92.1424 73.7955 102.875 71.6562C108.296 70.5766 114.159 67.7781 115.659 62.4511C116.436 59.7067 116.112 56.2927 118.347 54.5312C119.546 53.5908 121.166 53.4289 122.689 53.2774C127.374 52.7915 132.266 51.8511 135.85 48.7942C139.436 45.7362 141.109 39.9878 138.312 36.1959C136.347 33.5376 132.892 32.5546 129.663 31.8624C104.17 26.3744 77.0156 28.9133 52.9689 39.0266" fill="#BF8F25"/>
</svg>
